<?xml version="1.0" encoding="utf-8"?>
<!-- Generator: Adobe Illustrator 24.2.0, SVG Export Plug-In . SVG Version: 6.00 Build 0)  -->
<svg version="1.1" id="Layer_1" xmlns="http://www.w3.org/2000/svg" xmlns:xlink="http://www.w3.org/1999/xlink" x="0px" y="0px"
	 viewBox="0 0 623 301" enable-background="new 0 0 623 301" xml:space="preserve">
<g>
	<path fill="#323490" d="M352.36,0.5h0.27c7.11,3.08,15.85,2.58,21.82,8.03c3.21,3,0.98,7.69-1.72,10.17
		c-7.13,6.88-16.34,10.96-25,15.54c-11.34,4.78-22.78,9.36-33.89,14.67c-28.49,13.68-56.07,31.02-76.51,55.51
		c-14.69,17.46-24.37,39.47-25.2,62.43c5.85-6.72,12.76-12.45,18.38-19.37c3.44-4.16,5.81-9.04,8.2-13.85
		c0.11,26.96-0.01,53.92,0.06,80.88c0.06,5.25-2.21,10.16-4.67,14.68c-6.02,10.63-16.98,17.06-24.17,26.76
		c-4.85,6.28-7.91,13.66-10.65,21.04c0.36-18.2,0.28-36.4,0.75-54.59c3.03-2.44,6.34-5.63,5.74-9.93c0.15-3.73-2.99-6.17-5.38-8.53
		c-0.1-5.47-0.54-10.96,0.05-16.41c0.98-8.03,9.67-13.44,8.24-21.97c-1.89-18.27-7.74-35.98-15.86-52.4
		c-5-10.01-10.97-19.54-18.08-28.2c-6.66-10.51-16.95-18.11-27.57-24.26c-25.85-14.53-56.56-18.14-85.71-15.14
		c-15.6,2.46-31.06,6.7-46.96,6.65c-4.45-0.3-9.73-0.45-12.92-4.04c-1.53-2.93-0.81-6.51-0.04-9.57c2.33-7.86,9.4-13.09,16.49-16.46
		c12.68-5.75,26.69-7.64,40.46-8.67c21.25-1.79,42.87,2.71,61.9,12.26c27.52,13.74,48.88,37.42,64.16,63.74
		c3.28,5.28,5.66,11.08,9.08,16.27c2.16-3.98,3.87-8.2,6.04-12.18c12.1-23.21,28.99-44.06,49.89-59.89
		c26.33-20.09,59.03-31.06,91.97-32.82C345.14,0.81,348.76,0.87,352.36,0.5z"/>
	<path fill="#323490" d="M154.73,214.53c0.02-27.11,0.05-54.23-0.02-81.34c1.78,3.82,3.55,7.67,5.96,11.14
		c4.36,6.43,10.24,11.58,15.64,17.1c6.83,6.89,12.55,14.97,16.35,23.91c1.7,5.89,0.6,12.14,0.8,18.18
		c-2.85,2.32-6.48,4.83-6.25,8.98c-0.67,4.52,2.88,7.84,6.26,10.13c0.54,18.17,0.3,36.36,0.83,54.54
		c-3.11-8.44-6.71-16.89-12.72-23.71c-7.17-8.5-16.97-14.76-22.41-24.68C156.84,224.38,154.66,219.61,154.73,214.53z"/>
	<path fill="#323490" d="M247.95,147.92c1.55-3.58,5.01-5.76,7.39-8.74c-0.21,30.12-0.02,60.24-0.09,90.35
		c0.15,3.09-2.31,5.38-3.94,7.75c-6.25,8.34-16.02,12.72-23.75,19.42c-4.54,3.69-8.32,8.16-12.38,12.34
		c4.28-9.36,11.13-17.32,19.02-23.84c5.18-4.63,11.79-9.18,12.9-16.56c0.85-19.04,0.1-38.12,0.5-57.17
		C248.07,163.63,247.36,155.74,247.95,147.92z"/>
	<path fill="#323490" d="M138.23,139.38c2.44,2.98,6.28,5.14,7.39,9.02c0.42,7.83-0.15,15.69,0.28,23.52
		c0.42,18.87-0.37,37.77,0.49,56.62c1.26,8.28,9.05,12.95,14.7,18.22c7.29,6.24,13.41,13.92,17.41,22.66
		c-5.45-6.19-11.2-12.23-18.02-16.96c-8.37-5.76-17.51-11.59-22.05-21.07C138,200.74,138.4,170.05,138.23,139.38z"/>
	<g>
		<path fill="#323490" d="M264.55,147.99c12.33,0.12,24.68-0.34,36.98,0.59c6.75,0.55,13.91,2.2,18.95,7
			c3.11,2.92,3.45,8.19,0.7,11.46c-3.6,4.4-9.29,6.31-14.69,7.37c-9.89,1.76-19.98,1.26-29.98,1.34c-4.32-0.04-8.67,0.22-12.98-0.34
			c2.85-0.83,6.02-0.57,8.66-2.04c0.98-3.71,0.46-7.58,0.55-11.37c-2.76,0-5.52,0-8.27,0c0.03-0.44,0.08-1.33,0.11-1.77
			c2.72,0.01,5.45,0.02,8.18,0.02c-0.05-3.23,0.26-6.52-0.48-9.69c-2.18-1.72-5.2-1.33-7.8-1.7
			C264.5,148.64,264.53,148.2,264.55,147.99z M281.26,150.33c-0.01,3.31-0.01,6.62,0,9.92c5.57-0.01,11.15,0,16.73,0l0.02,1.75
			c-5.59,0-11.17,0-16.76,0.01c0,3.81,0,7.62-0.01,11.43c8.03,0.85,16.49,1.04,24.05-2.21c3.38-1.44,6.86-3.92,7.54-7.79
			c0.94-4.13-1.91-8.02-5.44-9.83C299.44,149.32,290.01,149.44,281.26,150.33z"/>
	</g>
	<g>
		<path fill="#323490" d="M356.92,147.6c0.39-0.01,1.15-0.04,1.53-0.05c7.36,7.66,14.04,15.97,21.36,23.68
			c2.41,2.89,6.36,3.09,9.69,4.22c-8.2,0.5-16.47,0.45-24.68,0.04c2.33-0.79,4.75-1.33,7.08-2.14c-1.67-2.44-3.6-4.68-5.59-6.86
			c-7.32,0.12-14.65-0.18-21.96,0.11c-2.33,1.8-4.05,4.27-5.9,6.53c2.2,1.13,4.65,1.47,7.08,1.74l-0.09,0.89
			c-6.37-0.14-12.76,0.3-19.12-0.31c2.84-1.09,6.19-1.39,8.37-3.75C342.37,163.92,349.29,155.41,356.92,147.6z M345.77,164.73
			c6.33,0.04,12.66,0.02,18.99,0.01c-3.12-3.53-6.26-7.04-9.38-10.56C352.17,157.69,349,161.24,345.77,164.73z"/>
	</g>
	<path fill="#323490" d="M391.7,148.01c8.25-0.03,16.5,0,24.76-0.02c0.02,0.21,0.08,0.64,0.11,0.85c-2.7,0.55-7.83-0.41-7.99,3.54
		c-0.01,6.9-0.48,13.88,0.27,20.75c2.3,1.59,5.22,1.46,7.89,1.81l0.07,0.81c-8.65-0.18-17.33,0.4-25.95-0.34
		c2.86-1.13,7.11,0.02,8.94-2.87c0.42-6.66,0.18-13.36,0.15-20.03c-0.1-4.02-5.47-3.11-8.25-3.69
		C391.7,148.62,391.7,148.22,391.7,148.01z"/>
	<path fill="#323490" d="M441.37,148.31c8.6-0.67,17.26-0.15,25.88-0.3c0.02,0.2,0.06,0.59,0.08,0.79c-2.81,0.21-5.6,0.68-8.27,1.58
		c-0.07,3.45-0.07,6.91-0.06,10.37c8.83,0,17.66,0,26.49,0c-0.06-3.38,0.31-6.8-0.32-10.13c-2.25-1.53-5.09-1.46-7.67-1.79
		c0.01-0.21,0.02-0.63,0.02-0.84c8.48,0.29,17.03-0.58,25.45,0.48c-2.85,0.72-6.02,0.55-8.6,2.12c-0.75,7.6-0.41,15.31-0.1,22.94
		c2.88,0.77,5.83,1.19,8.76,1.8c-8.79,0.74-17.7,0.59-26.49,0.08c2.72-0.98,6.19-0.29,8.45-2.27c1.08-3.36,0.3-7.12,0.5-10.64
		c-8.83,0-17.65,0-26.48,0c0.04,3.61-0.27,7.24,0.27,10.83c2.72,1.38,5.87,1.29,8.77,2.09c-8.67,0.72-17.39,0.15-26.08,0.33v-0.84
		c2.67-0.61,7.99,0.59,8.34-3.25c0.36-7.1,0.34-14.25-0.12-21.35C447.28,149.48,444.29,149.06,441.37,148.31z"/>
	<g>
		<path fill="#323490" d="M525.99,148.25c9.84-1.48,20.34-1.13,29.48,3.15c3.79,1.8,7.8,4.66,8.47,9.13
			c0.68,4.37-2.37,8.29-5.98,10.35c-8.76,5.29-19.46,5.98-29.43,5.08c-6.56-0.82-13.46-2.52-18.47-7.07c-3.6-3.14-4.31-9.24-1-12.83
			C513.34,151.25,519.89,149.44,525.99,148.25z M526.96,150.18c-2.8,0.77-5.52,2.15-7.42,4.4c-3.73,4.23-3.33,11.36,0.79,15.18
			c3.68,3.68,9.12,4.75,14.14,4.78c5.73,0.17,11.94-0.82,16.45-4.64c5.05-5.03,3.52-14.65-2.79-17.95
			C541.71,148.53,533.9,148.65,526.96,150.18z"/>
	</g>
	<path fill="#323490" d="M580.75,150.8c10.15-3.99,21.55-4.16,32.12-1.8c2.61,0.81,4.9-0.91,7.22-1.81
		c0.51,3.51,1.14,7.04,1.1,10.61c-3.3-3.57-7.12-7.01-12.11-7.78c-7.96-1.36-17.05-1.54-24.01,3.14
		c-5.45,3.64-6.41,12.63-0.85,16.62c6.9,4.85,16.01,4.89,24.09,4.06c5.35-0.45,9.74-3.76,14.66-5.52
		c-3.74,5.06-10.41,6.53-16.27,7.51c-9.45,0.93-19.5,0.78-28.24-3.34c-4.23-2.02-8.7-5.87-7.98-11.07
		C570.99,156,576.17,152.72,580.75,150.8z"/>
	<path fill="#323490" d="M350.67,179.34c2.59-3.46,7.53-3.2,10.71-0.72C359.09,182.55,353.7,182.14,350.67,179.34z"/>
	<path fill="#323490" d="M529.76,179.43c2.67-3.44,7.46-3.2,10.77-0.82C538.32,182.66,532.81,182.19,529.76,179.43z"/>
	<path fill="#323490" d="M430.92,187.03c2.59-0.03,5.18-0.03,7.77-0.03c0.42,2.13,0.82,4.27,1.18,6.43
		C436.09,192.63,433.67,189.45,430.92,187.03z"/>
	<path fill="#323490" d="M347.24,189.49c2.16-3.32,8.41-3.64,10.6-0.32c2.17,3.3-1.97,5.57-3.51,8.04c-0.93,0.6-1.37,3.51-2.68,2.28
		c0.22-3.22,2.37-5.83,2.94-8.94c-0.41-1.88-2.4-1.97-3.92-2.25c0.08,1.58,0.16,3.16,0.24,4.74
		C348.82,192.84,346.51,192.1,347.24,189.49z"/>
	<path fill="#323490" d="M435.79,194.5c1.67-0.01,3.33-0.01,5.01-0.02c1.38,1.93,2.74,3.88,3.97,5.92
		c-2.26-0.73-4.37-1.96-6.69-2.45c-2.15,0.69-4.19,1.68-6.3,2.46C433.05,198.4,434.41,196.44,435.79,194.5z"/>
	<path fill="#323490" d="M569.51,194.49c1.65,0,3.31,0,4.98,0c1.39,1.93,2.74,3.89,4,5.92c-2.28-0.82-4.49-1.76-6.69-2.75
		c-2.07,0.98-4.17,1.91-6.3,2.74C566.74,198.37,568.1,196.42,569.51,194.49z"/>
	<path fill="#323490" d="M264.25,204c10.07-0.03,20.13,0.04,30.2-0.04c0.02,4.85,0.25,9.72-0.19,14.56
		c-1.65-3.11-1.74-6.96-4.05-9.71c-1.61-2.04-4.44-1.41-6.69-1.69c-0.06,12.8,0.02,25.59-0.05,38.39c0.09,1.74-0.16,3.62,0.66,5.24
		c1.39,1.38,3.37,1.95,5.03,2.96c-6.45,0.45-12.95,0.46-19.39,0.03c2.06-1.38,5.54-2.13,5.39-5.25c0.21-13.8,0.04-27.6,0.07-41.4
		c-2.4,0.31-5.51-0.19-7.01,2.19c-1.86,2.79-2.08,6.3-3.67,9.23C264.01,213.69,264.31,208.84,264.25,204z"/>
	<path fill="#323490" d="M335.01,204.42c6.34-0.53,12.94-1.04,19.2,0.27c-1.58,0.52-3.16,0.99-4.75,1.43
		c-1.88,4.57-1.05,9.59-1.21,14.38c0.13,7.69-0.31,15.4,0.31,23.07c0.12,3.35,2.26,7.32,5.98,7.47c3.97,0.48,6.9-3.18,7.74-6.69
		c1.48-6.17,0.83-12.57,0.97-18.86c-0.13-5.31,0.3-10.65-0.23-15.95c-0.27-2.82-3.26-3.81-5.16-5.36c4.36-0.29,8.74-0.3,13.1,0.04
		c-1.81,1.57-4.95,2.32-5.14,5.11c-0.96,11.05,0.33,22.21-0.7,33.26c-0.47,5.34-3.82,11.11-9.4,12.25c-4,0.75-8.73,0.28-11.54-2.99
		c-3.5-3.53-3.91-8.76-4.14-13.45c-0.16-9.63,0.08-19.27-0.08-28.89C340.41,206.47,336.99,205.65,335.01,204.42z"/>
	<g>
		<path fill="#323490" d="M438.09,202.47c4.07,11.84,7.16,23.99,10.84,35.96c1.81,5.41,2.42,11.75,7.25,15.5
			c-5.65,0.14-11.31,0.05-16.96,0.07l0.02-1.06c1.37-0.71,3.84-0.53,3.95-2.59c-0.17-3.66-1.73-7.09-2.64-10.6
			c-3.8,0-7.6,0-11.39,0.01c-0.84,2.9-1.88,5.79-2.16,8.82c-0.25,3.07,3.36,3.67,5.24,5.16c-4.25,0.42-8.53,0.31-12.79,0.11
			c2.27-2.06,4.51-4.34,5.27-7.42C429.28,231.81,433.43,217.06,438.09,202.47z M430.03,236.99c3.24,0.01,6.48,0.01,9.72,0.01
			c-1.62-5.46-3.23-10.91-4.79-16.38C433.29,226.07,431.66,231.53,430.03,236.99z"/>
	</g>
	<path fill="#323490" d="M479,204.47c4.16-0.74,8.41-0.57,12.61-0.37c-0.73,2.38-4.78,2.43-4.45,5.5
		c-0.63,11.34,0.53,22.76-0.82,34.07c-0.65,5.22-4.41,10.6-9.93,11.28c-3.69,0.54-7.93,0.02-10.6-2.82
		c-3.69-3.5-4.23-8.88-4.31-13.67c-0.01-7.66-0.01-15.32,0.02-22.98c-0.03-3.09,0.33-6.38-1.26-9.18c-1.28-0.62-2.54-1.29-3.77-1.99
		c5.98-0.62,12.01-0.19,18.02-0.31l-0.01,1.17c-1.15,0.27-2.27,0.61-3.37,1.01c-1.62,1.67-1.34,4.15-1.41,6.28
		c0.07,9.37,0,18.75,0.03,28.13c0.09,2.93,0.26,6.16,2.25,8.51c2.4,2.97,7.43,2.44,9.59-0.56c3.33-4.24,2.76-9.99,3.1-15.06
		c-0.05-7.99,0.44-16.02-0.32-23.99C484.25,206.55,481.15,205.61,479,204.47z"/>
	<path fill="#323490" d="M504.96,204.44c4.86-0.81,9.8-0.35,14.7-0.43c3.04,10.81,6.18,21.59,9.26,32.39
		c2.98-10.82,5.98-21.63,9-32.43c4.77,0.09,9.55-0.16,14.3,0.27c-1.81,1.61-5.42,2.2-5.16,5.23c-0.18,11.68,0.03,23.38-0.09,35.06
		c0.03,1.98-0.12,4,0.4,5.93c1.35,1.43,3.23,2.19,4.84,3.3c-6.3,0.3-12.67,0.59-18.95-0.19c1.5-0.91,3.32-1.4,4.68-2.57
		c1.06-2.34,0.73-5.02,0.83-7.52c-0.15-10.93,0.19-21.86-0.18-32.79c-4.66,14.54-8.15,29.43-12.84,43.95
		c-4.79-14.76-8.86-29.77-13.01-44.72c-0.49,8.86-0.14,17.74-0.24,26.61c0.08,4.2-0.33,8.47,0.45,12.63
		c0.52,2.54,3.45,3.19,5.24,4.6c-4.41,0.39-8.85,0.34-13.26,0c2.21-1.59,5.73-2.76,5.46-6.12c0.2-12.73,0.17-25.49,0.01-38.22
		C510.61,206.33,506.96,205.72,504.96,204.44z"/>
	<g>
		<path fill="#323490" d="M566.87,204.06c5.05-1.27,11.18-0.96,15.05,2.96c5.83,5.45,7.84,13.79,7.87,21.53
			c0.04,8.01-1.91,16.63-7.67,22.52c-4.19,4.45-11.32,5.14-16.7,2.63c-5.77-2.93-8.8-9.28-10.27-15.29
			c-1.6-8.27-1.52-17.29,2.26-24.99C559.44,209.43,562.51,205.58,566.87,204.06z M569.6,206.66c-3.4,1.93-4.44,6.12-5.3,9.66
			c-1.42,7.95-1.4,16.14-0.26,24.13c0.69,3.62,1.52,7.6,4.3,10.26c2.58,2.4,7.05,1.44,8.67-1.61c3.5-5.87,3.45-13,3.72-19.62
			c-0.25-6.72-0.06-13.89-3.36-19.99C576.02,206.75,572.42,205.01,569.6,206.66z"/>
	</g>
	<path fill="#323490" d="M593.25,204.01c10.08,0,20.17-0.06,30.25,0.03v14.39c-1.8-2.78-2.44-6.1-4.04-8.97
		c-1.39-2.59-4.76-2.03-7.19-2.48c-0.06,12.16,0.03,24.32-0.06,36.48c0.02,2.28-0.08,4.6,0.46,6.83c1.38,1.57,3.34,2.4,5.05,3.56
		c-6.37,0.23-12.75,0.24-19.12,0.01c1.65-1.13,3.51-1.99,4.96-3.41c0.56-2.28,0.44-4.66,0.48-6.98
		c-0.11-12.19,0.03-24.37-0.08-36.55c-2.27,0.57-5.27,0.1-6.82,2.21c-1.92,2.83-2.41,6.31-3.63,9.44
		C593.12,213.72,593.25,208.86,593.25,204.01z"/>
	<path fill="#323490" d="M296.27,204.27c6.37-0.44,12.79-0.41,19.17-0.03c-1.92,1.56-5.56,2.18-5.34,5.3
		c-0.28,5.64-0.01,11.31-0.1,16.96c3.83,0,7.67,0,11.5,0c-0.07-5.72,0.14-11.44-0.06-17.15c0.11-2.94-3.29-3.64-5.13-5.12
		c6.29-0.35,12.61-0.41,18.9,0.02c-2.04,1.5-5.57,2.31-5.36,5.48c-0.27,11.6,0.01,23.22-0.13,34.83c0.1,2.02-0.18,4.2,0.66,6.1
		c1.35,1.39,3.25,2.03,4.85,3.09c-6.36,0.38-12.76,0.49-19.11-0.1c1.5-0.81,3.03-1.55,4.58-2.26c1.7-6.97,0.39-14.28,0.8-21.39
		c-3.83,0-7.67,0-11.5,0c0.09,6.17-0.17,12.34,0.09,18.5c-0.2,3.1,3.36,3.79,5.33,5.26c-6.37,0.39-12.77,0.39-19.14-0.01
		c1.96-1.46,5.6-2.1,5.39-5.2c0.22-11.34-0.02-22.69,0.1-34.03c-0.04-2.27,0.16-4.59-0.41-6.81
		C300.15,205.99,297.93,205.43,296.27,204.27z"/>
	<g>
		<path fill="#323490" d="M383.28,204.42c6.36-0.72,12.82-0.57,19.19-0.16c7.49,0.56,12.57,7.45,14.12,14.28
			c1.93,8.4,1.85,17.61-1.64,25.6c-2.44,5.68-8.19,9.83-14.44,9.85c-5.76,0-11.54,0.21-17.28-0.27c2.07-1.38,5.72-1.98,5.47-5.21
			c0.07-12.98,0.11-25.98-0.02-38.97C388.98,206.4,385.27,205.75,383.28,204.42z M397.05,206.74c0.12,14.63-0.5,29.3,0.33,43.91
			c3.08,0.68,6.63-0.16,8.08-3.21c3.78-7.32,3.47-15.95,3.07-23.96c-0.45-4.77-1.21-9.84-4.19-13.75
			C402.68,207.38,399.58,207.33,397.05,206.74z"/>
	</g>
	<path fill="#323490" d="M570.62,257.75c3.04-1.36,5.29,2.03,5.55,4.67c0.5,3.02-0.85,7.77-4.63,7.6
		C566.62,268.45,566.44,260.3,570.62,257.75z"/>
	<path fill="#323490" d="M264.26,281.74c5.25,0.01,10.5,0,15.75,0.01c0,0.63,0,1.87,0,2.5c-2.17,0-4.34,0-6.51,0.01
		c0,5.49,0,10.99,0,16.49c-0.69,0-2.07,0-2.75-0.01c0-5.49,0-10.99,0-16.49c-2.17,0-4.34,0-6.51-0.01
		C264.25,283.62,264.25,282.37,264.26,281.74z"/>
	<path fill="#323490" d="M282.51,281.74c0.75,0,2.24,0,2.99,0c0,2.59,0,5.17,0,7.76c3.25,0,6.5,0,9.75,0c0-2.59,0-5.17,0-7.74
		c0.68-0.01,2.06-0.01,2.75-0.01c0,6.33,0,12.67,0,19c-0.69,0-2.06,0-2.75,0c0-2.92,0-5.84,0-8.75c-3.25,0-6.49,0-9.73-0.01
		c-0.02,2.92-0.02,5.84-0.03,8.76c-0.74,0-2.24,0-2.99,0C282.5,294.41,282.49,288.07,282.51,281.74z"/>
	<g>
		<path fill="#323490" d="M329.5,281.75c4.35,0.32,9.31-1.05,13.15,1.55c4.01,3.55,4.08,10.35,1.23,14.63
			c-3.49,4.28-9.61,2.47-14.38,2.81C329.5,294.41,329.5,288.08,329.5,281.75z M332.26,284.2c-0.01,4.8-0.01,9.6-0.01,14.4
			c2.5-0.21,5.15,0.09,7.52-0.85c3.72-2.04,3.58-7.44,2.19-10.87C340.13,283.28,335.52,284.45,332.26,284.2z"/>
	</g>
	<g>
		<path fill="#323490" d="M354.42,281.71c0.77,0.02,2.31,0.04,3.08,0.06c2.68,6.41,5.47,12.78,8.03,19.24
			c-3.94,0.85-4.38-3.11-5.5-5.73c-2.69-0.03-5.38-0.03-8.06,0.03c-1.07,2.51-1.35,6.49-5.15,5.68
			C349.28,294.54,351.89,288.14,354.42,281.71z M352.94,292.74c2.03,0,4.06,0,6.09,0.01c-1.05-2.74-2.11-5.48-3.07-8.25
			C355.04,287.28,354.01,290.02,352.94,292.74z"/>
	</g>
	<path fill="#323490" d="M367.25,281.76c1-0.01,2-0.02,3-0.02c0.1,4.56-0.24,9.14,0.15,13.69c0.91,4.4,8.54,4.49,9.34,0.07
		c0.57-4.56,0.14-9.17,0.25-13.75c0.69,0,2.07,0,2.76,0.01c-0.15,4.91,0.35,9.86-0.27,14.74c-1.22,4.96-7.76,5.66-11.76,3.86
		c-2.56-1-3.3-3.94-3.41-6.41C367.12,289.89,367.29,285.82,367.25,281.76z"/>
	<path fill="#323490" d="M394.51,281.74c1.33,0,2.67,0,4.01,0.01c1.88,5.2,3.59,10.47,5.52,15.66c1.8-5.25,3.7-10.45,5.54-15.67
		c1.22,0,2.44,0,3.67,0.01c0,6.33,0,12.66,0,18.99c-0.68,0.01-2.06,0.01-2.75,0.01c0-4.88,0.08-9.77-0.21-14.65
		c-1.53,4.93-3.39,9.75-5.09,14.63c-0.69,0-2.06,0.01-2.75,0.02c-1.64-4.87-3.29-9.75-5.13-14.55c-0.12,4.85-0.06,9.7-0.07,14.55
		c-0.69,0-2.06,0-2.75,0C394.5,294.41,394.49,288.08,394.51,281.74z"/>
	<g>
		<path fill="#323490" d="M422.74,281.82c3.89-1.04,8.76-0.09,10.98,3.56c2.28,3.81,2.27,9.24-0.65,12.72
			c-3.54,4.11-10.77,4.23-14.31,0.07C414.46,293.24,415.99,283.74,422.74,281.82z M425.7,283.8c-6.97,0.02-8.64,10.47-3.41,13.96
			c2.37,1.58,5.79,1.33,7.91-0.58C434.48,293.08,432.44,283.59,425.7,283.8z"/>
	</g>
	<path fill="#323490" d="M436.99,281.75c5.17-0.01,10.34,0,15.51,0c0,0.62,0,1.88,0,2.5c-2.09,0-4.17,0-6.25,0
		c0,5.49-0.02,10.97,0.03,16.45c-0.76,0.02-2.27,0.06-3.03,0.07c0-5.5-0.01-11,0.01-16.5c-2.09-0.02-4.18-0.02-6.27-0.03
		C436.99,283.62,436.99,282.38,436.99,281.75z"/>
	<path fill="#323490" d="M481.75,281.76c0.72-0.01,2.15-0.03,2.87-0.04c3.42,4.8,6.65,9.73,10.11,14.51
		c0.03-4.83,0.01-9.66,0.02-14.48c0.62-0.01,1.87-0.01,2.5-0.01c0.01,6.33,0,12.67,0,19c-0.71,0.01-2.14,0.01-2.85,0.01
		c-3.3-4.74-6.58-9.51-9.89-14.25c-0.02,4.75-0.01,9.5-0.01,14.25c-0.69,0-2.07,0-2.75-0.01
		C481.75,294.41,481.75,288.09,481.75,281.76z"/>
	<path fill="#323490" d="M501.99,281.76c0.69-0.01,2.07-0.02,2.75-0.02c0.01,6.33,0.01,12.67,0.01,19
		c-0.69,0.01-2.06,0.01-2.75,0.02C501.99,294.42,502,288.09,501.99,281.76z"/>
	<path fill="#323490" d="M506.94,281.73c1.05,0,2.1,0.02,3.16,0.03c1.98,5.4,3.96,10.79,6.01,16.17c2.06-5.29,3.74-10.75,6.2-15.87
		c0.72-0.17,2.17-0.52,2.9-0.69c-2.33,6.54-5.08,12.92-7.62,19.39c-0.76-0.01-2.28-0.01-3.04-0.02
		C512.01,294.41,509.48,288.07,506.94,281.73z"/>
	<path fill="#323490" d="M527.27,281.73c4.74,0.03,9.48,0.02,14.23,0.02c0,0.62,0,1.88,0,2.5c-3.83,0-7.66,0-11.49,0
		c-0.01,1.83-0.01,3.66,0,5.5c3.58-0.01,7.16-0.01,10.75,0c0,0.63,0,1.87,0,2.5c-3.59,0-7.18,0-10.76,0c0,2.09,0,4.18,0.02,6.28
		c3.86,0.01,7.73-0.21,11.59,0.09c0.21,0.52,0.62,1.55,0.82,2.06c-5.06,0.12-10.12,0.05-15.18,0.07
		C527.25,294.41,527.23,288.07,527.27,281.73z"/>
	<g>
		<path fill="#323490" d="M545.5,281.75c4.96,0.62,11.5-1.87,15.15,2.61c1.95,3.3-0.51,6.98-3.82,8c2.36,2.53,4.21,5.46,6.06,8.37
			c-0.89,0.01-2.68,0.02-3.57,0.02c-1.62-2.41-3.06-4.99-5.08-7.11c-1.54-1.59-4.02-0.96-5.98-1.3c-0.01,2.8-0.01,5.6-0.01,8.41
			c-0.69,0-2.06,0-2.75,0C545.5,294.42,545.5,288.08,545.5,281.75z M548.26,283.95c-0.01,2.02-0.01,4.04-0.01,6.06
			c2.91-0.29,6.35,0.77,8.91-0.92c1.78-0.99,0.46-3.1,0.44-4.64C554.49,284.05,551.37,283.95,548.26,283.95z"/>
	</g>
	<path fill="#323490" d="M566.35,283.27c2.41-2.23,6.13-2.11,9.13-1.35c2.44,0.59,3.37,3.12,4.28,5.18
		c-0.66,0.11-1.98,0.33-2.64,0.44c-1.08-3.74-7.2-5.32-9.04-1.57c-1.2,1.95,1.81,2.97,3.3,3.27c3.36,0.84,8.86,1.61,8.56,6.22
		c-0.28,5.93-7.87,6.89-12.18,4.8c-2.61-0.87-3.22-3.74-3.9-6.04c3.05-0.5,3.85,2.64,5.92,4c2.49,1.04,5.63,0.46,7.36-1.69
		c0.16-1.57-0.64-2.91-2.16-3.33c-3.32-1.03-6.83-1.7-9.67-3.82C565.24,287.33,564.73,284.89,566.35,283.27z"/>
	<path fill="#323490" d="M589.26,281.75c6.49,0.27,13.07-0.57,19.51,0.31c2.27,2.48,3.88,5.48,5.73,8.27
		c1.92-2.87,3.87-5.73,5.84-8.57c0.79-0.02,2.37-0.04,3.16-0.06v0.22c-2.28,3.81-5.44,7.05-7.46,11.01
		c-0.53,2.56-0.28,5.21-0.35,7.82c-0.66,0-1.97,0-2.63,0c-0.27-3.15,0.69-6.73-1.24-9.5c-1.74-2.73-3.71-5.31-5.35-8.1
		c-0.51,0.4-1.02,0.81-1.52,1.22c-2.15-0.08-4.3-0.13-6.44-0.17c-0.02,5.52-0.01,11.04-0.01,16.56c-0.69-0.01-2.07-0.02-2.76-0.03
		c0.01-5.49,0.01-10.98,0.01-16.47c-2.18-0.01-4.35-0.02-6.51-0.02C589.24,283.62,589.25,282.37,589.26,281.75z"/>
	<path fill="#323490" d="M302.25,281.75c0.69,0,2.07,0,2.76,0c0.17,4.59-0.46,9.24,0.34,13.78c0.99,4.5,9.13,4.26,9.4-0.52
		c0.52-4.4,0.15-8.84,0.24-13.26c0.69,0,2.07,0,2.76,0c-0.1,4.58,0.26,9.18-0.18,13.74c-0.55,7.81-14.76,7.79-15.19-0.07
		C302.03,290.87,302.34,286.3,302.25,281.75z"/>
	<path fill="#323490" d="M462.25,281.75c0.69,0,2.07,0,2.76,0c0.16,4.59-0.41,9.25,0.3,13.81c0.99,4.14,8.42,4.38,9.23,0.05
		c0.8-4.57,0.36-9.25,0.46-13.86c0.68,0,2.06,0,2.75,0.01c-0.1,4.58,0.27,9.18-0.22,13.74c-0.58,7.77-14.64,7.77-15.16-0.03
		C462.04,290.91,462.33,286.32,462.25,281.75z"/>
	<path fill="#323490" d="M583.75,281.75c0.69,0,2.07,0,2.75,0c0,6.33,0,12.67,0,19c-0.69,0-2.06,0-2.75,0
		C583.74,294.41,583.74,288.08,583.75,281.75z"/>
	<path fill="#323490" d="M173.06,289.52c0.44-5.01,7.44-6.66,10.25-2.74c1.99,4.46-2.37,7.91-5.13,10.73
		c1.85-0.01,3.71-0.01,5.57-0.01c0,0.81,0,2.44,0,3.25c-3.7,0-7.39,0.02-11.08-0.05c1.04-3.9,4.29-6.36,6.85-9.22
		c1.19-1.11,1.13-3.04-0.05-4.12c-1.5,0.11-2.35,1.35-3.28,2.35C175.41,289.66,173.84,289.57,173.06,289.52z"/>
	<g>
		<path fill="#323490" d="M188.83,284.91c2.43-0.75,5.53,0.04,6.43,2.65c1.14,3.64,1.21,7.87-0.45,11.37
			c-2.12,3.53-8.16,2.2-8.75-1.86C185.34,293.07,184.72,287.29,188.83,284.91z M190.4,298.92c3.45-3.06,2.17-8.19,1.14-12.09
			C187.43,289.37,188.9,295.22,190.4,298.92z"/>
	</g>
	<g>
		<path fill="#323490" d="M200.94,285c2.4-0.89,5.57-0.12,6.44,2.52c1.27,3.64,1.34,7.96-0.47,11.44c-2.08,3.58-8.22,2.16-8.72-1.93
			C197.5,293.06,196.94,287.41,200.94,285z M202.59,287.6c-2,1.53-1.23,4.68-1.35,6.92c0.27,1.33,0.2,4.35,2.45,3.55
			c1.38-2.27,1.16-5.05,1.02-7.59C204.49,289.48,204.2,286.54,202.59,287.6z"/>
	</g>
	<g>
		<path fill="#323490" d="M211.05,293.94c-2.83-3-1.11-9.39,3.43-9.24c3.35-0.53,5.73,2.69,5.87,5.74c0.56,3.89-0.04,9.86-4.94,10.5
			c-2.9,0.82-4.76-1.87-5.89-4.07c2.03-0.41,4.07-0.43,5.44,1.42c0.89-1.05,1.78-2.1,2.67-3.16
			C215.47,294.93,212.67,295.9,211.05,293.94z M213.51,287.14c-0.21,1.51-0.5,3.04-0.42,4.59c0.82,1.24,3.1,1.45,3.37-0.28
			C217.49,289.26,215.53,287.44,213.51,287.14z"/>
	</g>
</g>
<g>
	<path fill="#2992CE" d="M352.63,0.5h12.08c8.06,0.73,16.49,1.86,23.46,6.28c3.54,2.22,6.92,6.22,5.6,10.69
		c-1.61,4.83-6.36,7.64-10.72,9.69c-11.12,4.83-23.35,6.1-35.32,7.08c8.66-4.58,17.87-8.66,25-15.54c2.7-2.48,4.93-7.17,1.72-10.17
		C368.48,3.08,359.74,3.58,352.63,0.5z"/>
	<path fill="#2992CE" d="M91.96,49.42c4.9,0.19,9.78,0.78,14.62,1.62c25.25,4.33,50.8,14.39,68.16,33.92
		c7.11,8.66,13.08,18.19,18.08,28.2c8.12,16.42,13.97,34.13,15.86,52.4c1.43,8.53-7.26,13.94-8.24,21.97
		c-0.59,5.45-0.15,10.94-0.05,16.41c2.39,2.36,5.53,4.8,5.38,8.53c0.6,4.3-2.71,7.49-5.74,9.93c-2.18,0.31-4.37,0.39-6.56,0.23
		c-3.38-2.29-6.93-5.61-6.26-10.13c-0.23-4.15,3.4-6.66,6.25-8.98c-0.2-6.04,0.9-12.29-0.8-18.18c-3.8-8.94-9.52-17.02-16.35-23.91
		c-1.22-4.26-1.82-8.67-2.99-12.95c-8.05-31.05-25.04-60.35-50.38-80.42C113.56,60.4,102.91,54.49,91.96,49.42z"/>
</g>
</svg>
